<svg width="14" height="16" viewBox="0 0 14 16" fill="none" xmlns="http://www.w3.org/2000/svg">
<path d="M4.8125 0.1875H2C1.5856 0.1875 1.18817 0.35212 0.895146 0.645146C0.60212 0.938171 0.4375 1.3356 0.4375 1.75V14.25C0.4375 14.6644 0.60212 15.0618 0.895146 15.3549C1.18817 15.6479 1.5856 15.8125 2 15.8125H4.8125C5.2269 15.8125 5.62433 15.6479 5.91735 15.3549C6.21038 15.0618 6.375 14.6644 6.375 14.25V1.75C6.375 1.3356 6.21038 0.938171 5.91735 0.645146C5.62433 0.35212 5.2269 0.1875 4.8125 0.1875ZM4.5 13.9375H2.3125V2.0625H4.5V13.9375ZM12 0.1875H9.1875C8.7731 0.1875 8.37567 0.35212 8.08265 0.645146C7.78962 0.938171 7.625 1.3356 7.625 1.75V14.25C7.625 14.6644 7.78962 15.0618 8.08265 15.3549C8.37567 15.6479 8.7731 15.8125 9.1875 15.8125H12C12.4144 15.8125 12.8118 15.6479 13.1049 15.3549C13.3979 15.0618 13.5625 14.6644 13.5625 14.25V1.75C13.5625 1.3356 13.3979 0.938171 13.1049 0.645146C12.8118 0.35212 12.4144 0.1875 12 0.1875ZM11.6875 13.9375H9.5V2.0625H11.6875V13.9375Z" fill="#1E293B"/>
</svg>
