<svg width="18" height="16" viewBox="0 0 18 16" fill="none" xmlns="http://www.w3.org/2000/svg">
<path d="M4.31274 5.97344V1.125C4.31274 0.87636 4.21397 0.637903 4.03815 0.462087C3.86234 0.286272 3.62388 0.1875 3.37524 0.1875C3.1266 0.1875 2.88814 0.286272 2.71233 0.462087C2.53651 0.637903 2.43774 0.87636 2.43774 1.125V5.97344C1.88945 6.16734 1.41476 6.52645 1.07902 7.00131C0.743271 7.47617 0.562988 8.04344 0.562988 8.625C0.562988 9.20656 0.743271 9.77383 1.07902 10.2487C1.41476 10.7236 1.88945 11.0827 2.43774 11.2766V14.875C2.43774 15.1236 2.53651 15.3621 2.71233 15.5379C2.88814 15.7137 3.1266 15.8125 3.37524 15.8125C3.62388 15.8125 3.86234 15.7137 4.03815 15.5379C4.21397 15.3621 4.31274 15.1236 4.31274 14.875V11.2766C4.86103 11.0827 5.33572 10.7236 5.67146 10.2487C6.00721 9.77383 6.18749 9.20656 6.18749 8.625C6.18749 8.04344 6.00721 7.47617 5.67146 7.00131C5.33572 6.52645 4.86103 6.16734 4.31274 5.97344ZM3.37524 9.5625C3.18982 9.5625 3.00856 9.50752 2.85439 9.4045C2.70022 9.30149 2.58006 9.15507 2.5091 8.98376C2.43815 8.81246 2.41958 8.62396 2.45575 8.4421C2.49193 8.26025 2.58122 8.0932 2.71233 7.96209C2.84344 7.83098 3.01049 7.74169 3.19234 7.70551C3.3742 7.66934 3.5627 7.68791 3.73401 7.75886C3.90531 7.82982 4.05173 7.94998 4.15474 8.10415C4.25776 8.25832 4.31274 8.43958 4.31274 8.625C4.31274 8.87364 4.21397 9.1121 4.03815 9.28791C3.86234 9.46373 3.62388 9.5625 3.37524 9.5625ZM11.8127 4.875C11.8119 4.29359 11.6313 3.72667 11.2956 3.25196C10.9599 2.77725 10.4856 2.41799 9.93774 2.22344V1.125C9.93774 0.87636 9.83897 0.637903 9.66315 0.462087C9.48734 0.286272 9.24888 0.1875 9.00024 0.1875C8.7516 0.1875 8.51314 0.286272 8.33733 0.462087C8.16151 0.637903 8.06274 0.87636 8.06274 1.125V2.22344C7.51445 2.41734 7.03976 2.77645 6.70402 3.25131C6.36827 3.72617 6.18799 4.29344 6.18799 4.875C6.18799 5.45656 6.36827 6.02383 6.70402 6.49869C7.03976 6.97355 7.51445 7.33266 8.06274 7.52656V14.875C8.06274 15.1236 8.16151 15.3621 8.33733 15.5379C8.51314 15.7137 8.7516 15.8125 9.00024 15.8125C9.24888 15.8125 9.48734 15.7137 9.66315 15.5379C9.83897 15.3621 9.93774 15.1236 9.93774 14.875V7.52656C10.4856 7.33201 10.9599 6.97275 11.2956 6.49804C11.6313 6.02333 11.8119 5.45641 11.8127 4.875ZM9.00024 5.8125C8.81482 5.8125 8.63356 5.75752 8.47939 5.6545C8.32522 5.55149 8.20506 5.40507 8.1341 5.23377C8.06315 5.06246 8.04458 4.87396 8.08075 4.6921C8.11693 4.51025 8.20622 4.3432 8.33733 4.21209C8.46844 4.08098 8.63548 3.99169 8.81734 3.95551C8.9992 3.91934 9.1877 3.93791 9.359 4.00886C9.53031 4.07982 9.67673 4.19998 9.77974 4.35415C9.88276 4.50832 9.93774 4.68958 9.93774 4.875C9.93774 5.12364 9.83897 5.3621 9.66315 5.53791C9.48734 5.71373 9.24888 5.8125 9.00024 5.8125ZM17.4377 11.125C17.4369 10.5436 17.2563 9.97667 16.9206 9.50196C16.5849 9.02725 16.1106 8.66799 15.5627 8.47344V1.125C15.5627 0.87636 15.464 0.637903 15.2882 0.462087C15.1123 0.286272 14.8739 0.1875 14.6252 0.1875C14.3766 0.1875 14.1381 0.286272 13.9623 0.462087C13.7865 0.637903 13.6877 0.87636 13.6877 1.125V8.47344C13.1395 8.66734 12.6648 9.02645 12.329 9.50131C11.9933 9.97617 11.813 10.5434 11.813 11.125C11.813 11.7066 11.9933 12.2738 12.329 12.7487C12.6648 13.2236 13.1395 13.5827 13.6877 13.7766V14.875C13.6877 15.1236 13.7865 15.3621 13.9623 15.5379C14.1381 15.7137 14.3766 15.8125 14.6252 15.8125C14.8739 15.8125 15.1123 15.7137 15.2882 15.5379C15.464 15.3621 15.5627 15.1236 15.5627 14.875V13.7766C16.1106 13.582 16.5849 13.2227 16.9206 12.748C17.2563 12.2733 17.4369 11.7064 17.4377 11.125ZM14.6252 12.0625C14.4398 12.0625 14.2586 12.0075 14.1044 11.9045C13.9502 11.8015 13.8301 11.6551 13.7591 11.4838C13.6881 11.3125 13.6696 11.124 13.7058 10.9421C13.7419 10.7602 13.8312 10.5932 13.9623 10.4621C14.0934 10.331 14.2605 10.2417 14.4423 10.2055C14.6242 10.1693 14.8127 10.1879 14.984 10.2589C15.1553 10.3298 15.3017 10.45 15.4047 10.6042C15.5078 10.7583 15.5627 10.9396 15.5627 11.125C15.5627 11.3736 15.464 11.6121 15.2882 11.7879C15.1123 11.9637 14.8739 12.0625 14.6252 12.0625Z" fill="#475569"/>
</svg>
