<svg width="16" height="16" viewBox="0 0 16 16" fill="none" xmlns="http://www.w3.org/2000/svg">
<path d="M13.625 0.8125H2.375C1.9606 0.8125 1.56317 0.97712 1.27015 1.27015C0.97712 1.56317 0.8125 1.9606 0.8125 2.375V13.625C0.8125 14.0394 0.97712 14.4368 1.27015 14.7299C1.56317 15.0229 1.9606 15.1875 2.375 15.1875H13.625C14.0394 15.1875 14.4368 15.0229 14.7299 14.7299C15.0229 14.4368 15.1875 14.0394 15.1875 13.625V2.375C15.1875 1.9606 15.0229 1.56317 14.7299 1.27015C14.4368 0.97712 14.0394 0.8125 13.625 0.8125ZM13.3125 7.0625H8.9375V2.6875H13.3125V7.0625ZM7.0625 2.6875V7.0625H2.6875V2.6875H7.0625ZM2.6875 8.9375H7.0625V13.3125H2.6875V8.9375ZM8.9375 13.3125V8.9375H13.3125V13.3125H8.9375Z" fill="#1E293B"/>
</svg>
