<svg width="16" height="12" viewBox="0 0 16 12" fill="none" xmlns="http://www.w3.org/2000/svg">
<path d="M15.8125 6C15.8125 6.24864 15.7137 6.4871 15.5379 6.66291C15.3621 6.83873 15.1236 6.9375 14.875 6.9375H1.125C0.87636 6.9375 0.637903 6.83873 0.462087 6.66291C0.286272 6.4871 0.1875 6.24864 0.1875 6C0.1875 5.75136 0.286272 5.5129 0.462087 5.33709C0.637903 5.16127 0.87636 5.0625 1.125 5.0625H14.875C15.1236 5.0625 15.3621 5.16127 15.5379 5.33709C15.7137 5.5129 15.8125 5.75136 15.8125 6ZM1.125 1.9375H14.875C15.1236 1.9375 15.3621 1.83873 15.5379 1.66291C15.7137 1.4871 15.8125 1.24864 15.8125 1C15.8125 0.75136 15.7137 0.512903 15.5379 0.337087C15.3621 0.161272 15.1236 0.0625 14.875 0.0625H1.125C0.87636 0.0625 0.637903 0.161272 0.462087 0.337087C0.286272 0.512903 0.1875 0.75136 0.1875 1C0.1875 1.24864 0.286272 1.4871 0.462087 1.66291C0.637903 1.83873 0.87636 1.9375 1.125 1.9375ZM14.875 10.0625H1.125C0.87636 10.0625 0.637903 10.1613 0.462087 10.3371C0.286272 10.5129 0.1875 10.7514 0.1875 11C0.1875 11.2486 0.286272 11.4871 0.462087 11.6629C0.637903 11.8387 0.87636 11.9375 1.125 11.9375H14.875C15.1236 11.9375 15.3621 11.8387 15.5379 11.6629C15.7137 11.4871 15.8125 11.2486 15.8125 11C15.8125 10.7514 15.7137 10.5129 15.5379 10.3371C15.3621 10.1613 15.1236 10.0625 14.875 10.0625Z" fill="#4F46E5"/>
</svg>
