<svg width="20" height="22" viewBox="0 0 20 22" fill="none" xmlns="http://www.w3.org/2000/svg">
<path d="M6.99976 18.9219H12.9998C13.25 18.9219 13.4915 19.0088 13.6833 19.166L13.7625 19.2373C13.9646 19.4395 14.0779 19.7141 14.0779 20C14.0779 20.2503 13.9911 20.4917 13.8337 20.6836L13.7625 20.7627C13.5603 20.9648 13.2856 21.0781 12.9998 21.0781H6.99976C6.74976 21.0781 6.50888 20.991 6.31714 20.834L6.23804 20.7627C6.03585 20.5605 5.92163 20.2859 5.92163 20C5.92163 19.7498 6.00855 19.5083 6.16577 19.3164L6.23804 19.2373C6.44013 19.0354 6.71408 18.9219 6.99976 18.9219ZM9.99976 0.921875C11.9461 0.921875 13.8177 1.64706 15.2537 2.94727L15.5349 3.21484C17.003 4.6829 17.8279 6.67385 17.8279 8.75L17.8328 9.19531C17.8799 11.2546 18.2567 13.0094 18.9314 14.3086L19.0808 14.5791C19.242 14.8578 19.3265 15.1742 19.3269 15.4961L19.323 15.6172C19.3074 15.8572 19.2445 16.0917 19.1384 16.3076L19.0818 16.4141C18.943 16.6583 18.7498 16.8667 18.5173 17.0225L18.4148 17.0859C18.1717 17.2263 17.8999 17.3083 17.6208 17.3252L17.5007 17.3281H2.49976C2.21842 17.3303 1.94076 17.2671 1.68921 17.1436L1.58276 17.0869C1.33909 16.9463 1.13263 16.7505 0.978271 16.5166L0.914795 16.4141C0.754931 16.1346 0.6715 15.818 0.672607 15.4961L0.676514 15.376C0.693089 15.1358 0.756909 14.9011 0.864014 14.6855L0.921631 14.5791C1.74094 13.1696 2.17163 11.1525 2.17163 8.75C2.17163 6.80365 2.89681 4.93208 4.19702 3.49609L4.4646 3.21484C5.93259 1.74685 7.92371 0.921947 9.99976 0.921875ZM9.99976 3.07812C8.49558 3.0782 7.05263 3.67564 5.98901 4.73926C4.92542 5.80293 4.32788 7.24579 4.32788 8.75C4.32788 11.2896 3.90837 13.4253 3.08276 15.1045L3.04956 15.1719H16.95L16.9167 15.1045C16.0911 13.4253 15.6716 11.2887 15.6716 8.75C15.6716 7.33984 15.1468 5.98378 14.2048 4.94336L14.0105 4.73926C12.9468 3.67566 11.504 3.07812 9.99976 3.07812Z" fill="#475569" stroke="#475569" stroke-width="0.09375"/>
</svg>
