<svg width="96" height="96" viewBox="0 0 96 96" fill="none" xmlns="http://www.w3.org/2000/svg">
<rect width="96" height="96" rx="48" fill="#E0E7FF"/>
<path d="M80 48C80 39.5131 76.6286 31.3737 70.6274 25.3726C64.6263 19.3714 56.4869 16 48 16C39.5131 16 31.3738 19.3714 25.3726 25.3726C19.3714 31.3737 16 39.5131 16 48L48 48H80Z" fill="#818CF8"/>
<path d="M16 48C16 56.4869 19.3714 64.6263 25.3726 70.6274C31.3737 76.6286 39.5131 80 48 80C56.4869 80 64.6263 76.6286 70.6274 70.6274C76.6286 64.6263 80 56.4869 80 48L48 48L16 48Z" fill="#4F46E5"/>
</svg>
