<svg width="16" height="14" viewBox="0 0 16 14" fill="none" xmlns="http://www.w3.org/2000/svg">
<path d="M14.25 7.625H1.75C1.3356 7.625 0.938171 7.78962 0.645146 8.08265C0.35212 8.37567 0.1875 8.7731 0.1875 9.1875V12C0.1875 12.4144 0.35212 12.8118 0.645146 13.1049C0.938171 13.3979 1.3356 13.5625 1.75 13.5625H14.25C14.6644 13.5625 15.0618 13.3979 15.3549 13.1049C15.6479 12.8118 15.8125 12.4144 15.8125 12V9.1875C15.8125 8.7731 15.6479 8.37567 15.3549 8.08265C15.0618 7.78962 14.6644 7.625 14.25 7.625ZM13.9375 11.6875H2.0625V9.5H13.9375V11.6875ZM14.25 0.4375H1.75C1.3356 0.4375 0.938171 0.60212 0.645146 0.895146C0.35212 1.18817 0.1875 1.5856 0.1875 2V4.8125C0.1875 5.2269 0.35212 5.62433 0.645146 5.91735C0.938171 6.21038 1.3356 6.375 1.75 6.375H14.25C14.6644 6.375 15.0618 6.21038 15.3549 5.91735C15.6479 5.62433 15.8125 5.2269 15.8125 4.8125V2C15.8125 1.5856 15.6479 1.18817 15.3549 0.895146C15.0618 0.60212 14.6644 0.4375 14.25 0.4375ZM13.9375 4.5H2.0625V2.3125H13.9375V4.5Z" fill="#1E293B"/>
</svg>
