<svg width="20" height="21" viewBox="0 0 20 21" fill="none" xmlns="http://www.w3.org/2000/svg">
<path d="M14.5 0.171875C14.7503 0.171875 14.9917 0.258728 15.1836 0.416016L15.2627 0.487305C15.4649 0.689492 15.5781 0.964064 15.5781 1.25V1.67188H17.5C17.9848 1.67188 18.4501 1.86419 18.793 2.20703C19.1358 2.54987 19.3281 3.01515 19.3281 3.5V18.5C19.3281 18.9848 19.1358 19.4501 18.793 19.793C18.4501 20.1358 17.9848 20.3281 17.5 20.3281H2.5C2.07585 20.3281 1.66707 20.1805 1.3418 19.9141L1.20703 19.793C0.864191 19.4501 0.671875 18.9848 0.671875 18.5V3.5C0.671875 3.07585 0.8195 2.66707 1.08594 2.3418L1.20703 2.20703C1.54987 1.86419 2.01515 1.67188 2.5 1.67188H4.42188V1.25C4.42188 0.999725 4.50873 0.758284 4.66602 0.566406L4.7373 0.487305C4.93949 0.285117 5.21406 0.171875 5.5 0.171875C5.75028 0.171875 5.99172 0.258728 6.18359 0.416016L6.2627 0.487305C6.46488 0.689492 6.57812 0.964063 6.57812 1.25V1.67188H13.4219V1.25C13.4219 0.999725 13.5087 0.758284 13.666 0.566406L13.7373 0.487305C13.9395 0.285117 14.2141 0.171875 14.5 0.171875ZM2.82812 18.1719H17.1719V8.32812H2.82812V18.1719ZM2.82812 6.17188H17.1719V3.82812H15.5781V3.875C15.5781 4.12527 15.4913 4.36672 15.334 4.55859L15.2627 4.6377C15.0605 4.83988 14.7859 4.95312 14.5 4.95312C14.2497 4.95312 14.0083 4.86627 13.8164 4.70898L13.7373 4.6377C13.5351 4.43551 13.4219 4.16094 13.4219 3.875V3.82812H6.57812V3.875C6.57812 4.12528 6.49127 4.36672 6.33398 4.55859L6.2627 4.6377C6.06051 4.83988 5.78594 4.95312 5.5 4.95312C5.24972 4.95312 5.00828 4.86627 4.81641 4.70898L4.7373 4.6377C4.53512 4.43551 4.42188 4.16094 4.42188 3.875V3.82812H2.82812V6.17188Z" fill="#475569" stroke="#475569" stroke-width="0.09375"/>
</svg>
