<svg width="22" height="22" viewBox="0 0 22 22" fill="none" xmlns="http://www.w3.org/2000/svg">
<path d="M11 6.17188C12.2002 6.17327 13.3539 6.62093 14.2393 7.42285L14.4121 7.58789C15.3172 8.49302 15.8266 9.71996 15.8281 11L15.8145 11.3564C15.7618 12.0672 15.5531 12.7577 15.2021 13.3779L15.0146 13.6826C14.5504 14.3774 13.9145 14.9374 13.1719 15.3115L12.8477 15.4609C12.0759 15.7806 11.2362 15.8934 10.4111 15.792L10.0576 15.7354C9.23834 15.5723 8.47734 15.2 7.84766 14.6572L7.58594 14.4141C6.99508 13.8232 6.56969 13.0904 6.34766 12.2891L6.26465 11.9424C6.07836 11.0059 6.17367 10.0345 6.53906 9.15234C6.85885 8.3803 7.37285 7.70616 8.02832 7.19434L8.31738 6.98535C9.01222 6.52108 9.81418 6.24695 10.6436 6.18555L11 6.17188ZM12.0225 8.53125C11.5343 8.32906 10.9968 8.2768 10.4785 8.37988C10.0251 8.47012 9.60432 8.6762 9.25586 8.97656L9.11035 9.11035C8.73676 9.48395 8.48301 9.96034 8.37988 10.4785C8.28969 10.9319 8.31876 11.4 8.46289 11.8369L8.53125 12.0225C8.70818 12.4496 8.99287 12.8223 9.35547 13.1055L9.51562 13.2217C9.95499 13.5152 10.4716 13.6719 11 13.6719C11.6201 13.6719 12.2179 13.4561 12.6934 13.0664L12.8896 12.8896C13.3907 12.3886 13.6719 11.7086 13.6719 11C13.6719 10.4716 13.5152 9.955 13.2217 9.51562C12.9648 9.13122 12.613 8.82129 12.2021 8.61426L12.0225 8.53125ZM3.53027 15.2393L3.50586 15.2256L0.898438 13.7402C0.797399 13.683 0.706309 13.6094 0.628906 13.5234L0.556641 13.4336C0.488605 13.3395 0.436015 13.2353 0.401367 13.125L0.37207 13.0127C0.141435 11.8506 0.113094 10.6587 0.286133 9.48926L0.37207 8.98926C0.402136 8.8374 0.465144 8.69394 0.555664 8.56836C0.623777 8.47393 0.706656 8.39091 0.800781 8.32324L0.898438 8.26074L3.5 6.7793L3.52344 6.76562V6.73828L3.53613 3.7998L3.54297 3.68359C3.55167 3.60681 3.56888 3.53117 3.59375 3.45801L3.6377 3.34961C3.68703 3.24377 3.75293 3.1468 3.83301 3.0625L3.91797 2.98242C4.83225 2.20701 5.86802 1.58976 6.98242 1.1543L7.46484 0.978516C7.60765 0.930347 7.75911 0.912834 7.90918 0.926758C8.02183 0.937231 8.13185 0.965243 8.23535 1.00977L8.33594 1.05957L10.9775 2.53516L11 2.54785L11.0225 2.53516L13.6641 1.06055C13.7625 1.00568 13.8685 0.966226 13.9785 0.944336L14.0898 0.928711C14.2021 0.918391 14.3153 0.925624 14.4248 0.950195L14.5332 0.980469C15.6692 1.36192 16.7331 1.92882 17.6816 2.65723L18.0811 2.97852C18.1705 3.05419 18.2463 3.14432 18.3066 3.24414L18.3613 3.34668C18.4272 3.48802 18.4623 3.64192 18.4629 3.79785L18.4727 6.7334V6.76074L18.4961 6.77441L21.1016 8.25977C21.2027 8.31694 21.2936 8.39072 21.3711 8.47656L21.4443 8.56641C21.535 8.6916 21.5975 8.83479 21.6279 8.98633V8.9873C21.8591 10.1493 21.8893 11.3411 21.7168 12.5107L21.6299 13.0107C21.6073 13.1245 21.5668 13.2336 21.5098 13.334L21.4473 13.4316C21.3792 13.526 21.2962 13.6091 21.2021 13.6768L21.1045 13.7393L18.4971 15.2207L18.4736 15.2344V15.2617L18.4609 18.2002L18.4541 18.3164C18.4454 18.3932 18.4282 18.4688 18.4033 18.542L18.3594 18.6504C18.31 18.7562 18.2442 18.8532 18.1641 18.9375L18.0801 19.0176C17.1657 19.7932 16.1292 20.4102 15.0146 20.8457L14.5322 21.0215C14.4253 21.0575 14.3136 21.0767 14.2012 21.0781L14.0879 21.0732C13.9752 21.0628 13.8652 21.0348 13.7617 20.9902L13.6611 20.9404L11.0225 19.4648L11 19.4521L10.9775 19.4648L8.33887 20.9395C8.20764 21.0126 8.06269 21.0575 7.91309 21.0713C7.80088 21.0816 7.68763 21.0744 7.57812 21.0498L7.46973 21.0195C6.33378 20.6381 5.2698 20.0712 4.32129 19.3428L3.92188 19.0215C3.80275 18.9207 3.70753 18.7947 3.6416 18.6533C3.57574 18.512 3.54065 18.3581 3.54004 18.2021L3.53027 15.2666V15.2393ZM16.3076 4.32031L16.2891 4.30664C15.6774 3.84954 15.0083 3.47473 14.2988 3.19238L14.2783 3.18359L14.2588 3.19434L11.71 4.61914C11.5837 4.68898 11.4452 4.73241 11.3027 4.74805L11.1582 4.75391H10.834C10.689 4.75777 10.545 4.7327 10.4111 4.67969L10.2812 4.61816L7.73633 3.19336L7.7168 3.18262L7.69531 3.19141C6.98724 3.47398 6.31984 3.84918 5.70996 4.30664L5.69141 4.32031V4.34375L5.68066 7.18652C5.67991 7.33702 5.64794 7.48569 5.58691 7.62207L5.5166 7.75391L5.35547 8.02637C5.28333 8.1554 5.18597 8.26828 5.06934 8.35742L4.94727 8.43848L2.42676 9.87109L2.40625 9.88184L2.40332 9.90527C2.30479 10.6324 2.30479 11.3696 2.40332 12.0967L2.40625 12.1191L2.42676 12.1309L4.94824 13.5723H4.94922C5.07731 13.6447 5.18833 13.7427 5.27637 13.8594L5.35645 13.9814L5.5166 14.2529L5.51758 14.2539C5.62403 14.424 5.68078 14.6206 5.68164 14.8213L5.69141 17.6562L5.69238 17.6797L5.71094 17.6934C6.32262 18.1505 6.99168 18.5253 7.70117 18.8076L7.72168 18.8164L7.74121 18.8057L10.29 17.3838C10.4163 17.3139 10.5548 17.2705 10.6973 17.2549L10.8418 17.248H11.1924C11.3306 17.2481 11.4673 17.2748 11.5947 17.3262L11.7188 17.3857L14.2637 18.8096L14.2832 18.8213L14.3047 18.8125C15.013 18.5288 15.6803 18.1521 16.29 17.6934L16.3086 17.6797V17.6562L16.3223 14.8135C16.323 14.663 16.355 14.5143 16.416 14.3779L16.4863 14.2461L16.6475 13.9736C16.7193 13.8443 16.8169 13.7318 16.9336 13.6426L17.0557 13.5615L19.5762 12.1289L19.5957 12.1182L19.5996 12.0947C19.6975 11.3662 19.6965 10.6276 19.5967 9.89941L19.5938 9.87695L19.5732 9.86523L17.0518 8.42773H17.0508C16.9227 8.35529 16.8117 8.25725 16.7236 8.14062L16.6436 8.01855L16.4834 7.74707L16.4824 7.74609C16.376 7.57597 16.3192 7.37939 16.3184 7.17871L16.3086 4.34375L16.3076 4.32031Z" fill="#475569" stroke="#475569" stroke-width="0.09375"/>
</svg>
