<svg width="17" height="14" viewBox="0 0 17 14" fill="none" xmlns="http://www.w3.org/2000/svg">
<path d="M0.8125 8C0.8125 7.75135 0.911272 7.5129 1.08709 7.33708C1.2629 7.16127 1.50136 7.0625 1.75 7.0625H7.0625C7.31114 7.0625 7.5496 7.16127 7.72541 7.33708C7.90123 7.5129 8 7.75135 8 8C8 8.24864 7.90123 8.48709 7.72541 8.66291C7.5496 8.83872 7.31114 8.9375 7.0625 8.9375H1.75C1.50136 8.9375 1.2629 8.83872 1.08709 8.66291C0.911272 8.48709 0.8125 8.24864 0.8125 8ZM1.75 3.93749H5.8125C6.06114 3.93749 6.2996 3.83872 6.47541 3.66291C6.65123 3.48709 6.75 3.24864 6.75 2.99999C6.75 2.75135 6.65123 2.5129 6.47541 2.33708C6.2996 2.16127 6.06114 2.06249 5.8125 2.06249H1.75C1.50136 2.06249 1.2629 2.16127 1.08709 2.33708C0.911272 2.5129 0.8125 2.75135 0.8125 2.99999C0.8125 3.24864 0.911272 3.48709 1.08709 3.66291C1.2629 3.83872 1.50136 3.93749 1.75 3.93749ZM12.0625 12.0625H1.75C1.50136 12.0625 1.2629 12.1613 1.08709 12.3371C0.911272 12.5129 0.8125 12.7514 0.8125 13C0.8125 13.2486 0.911272 13.4871 1.08709 13.6629C1.2629 13.8387 1.50136 13.9375 1.75 13.9375H12.0625C12.3111 13.9375 12.5496 13.8387 12.7254 13.6629C12.9012 13.4871 13 13.2486 13 13C13 12.7514 12.9012 12.5129 12.7254 12.3371C12.5496 12.1613 12.3111 12.0625 12.0625 12.0625ZM16.1633 4.21171L13.0383 1.08671C12.9512 0.999313 12.8477 0.929966 12.7337 0.882649C12.6198 0.835331 12.4976 0.810974 12.3742 0.810974C12.2508 0.810974 12.1287 0.835331 12.0147 0.882649C11.9007 0.929966 11.7973 0.999313 11.7102 1.08671L8.58516 4.21171C8.40904 4.38783 8.31009 4.6267 8.31009 4.87578C8.31009 5.12485 8.40904 5.36372 8.58516 5.53984C8.76128 5.71596 9.00015 5.8149 9.24922 5.8149C9.49829 5.8149 9.73716 5.71596 9.91328 5.53984L11.4375 4.01562V9.25C11.4375 9.49864 11.5363 9.73709 11.7121 9.91291C11.8879 10.0887 12.1264 10.1875 12.375 10.1875C12.6236 10.1875 12.8621 10.0887 13.0379 9.91291C13.2137 9.73709 13.3125 9.49864 13.3125 9.25V4.01562L14.8367 5.54062C14.9239 5.62783 15.0275 5.697 15.1414 5.7442C15.2553 5.79139 15.3775 5.81568 15.5008 5.81568C15.6241 5.81568 15.7462 5.79139 15.8602 5.7442C15.9741 5.697 16.0776 5.62783 16.1648 5.54062C16.252 5.45341 16.3212 5.34989 16.3684 5.23595C16.4156 5.12201 16.4399 4.99989 16.4399 4.87656C16.4399 4.75323 16.4156 4.63111 16.3684 4.51717C16.3212 4.40323 16.252 4.2997 16.1648 4.21249L16.1633 4.21171Z" fill="#475569"/>
</svg>
