<svg width="22" height="19" viewBox="0 0 22 19" fill="none" xmlns="http://www.w3.org/2000/svg">
<path d="M13.25 0.671875H18.5C18.7503 0.671875 18.9917 0.758728 19.1836 0.916016L19.2627 0.987305C19.4649 1.18949 19.5781 1.46406 19.5781 1.75V16.4219H20C20.2503 16.4219 20.4917 16.5087 20.6836 16.666L20.7627 16.7373C20.9649 16.9395 21.0781 17.2141 21.0781 17.5C21.0781 17.7503 20.9913 17.9917 20.834 18.1836L20.7627 18.2627C20.5605 18.4649 20.2859 18.5781 20 18.5781H2C1.74973 18.5781 1.50828 18.4913 1.31641 18.334L1.2373 18.2627C1.03512 18.0605 0.921875 17.7859 0.921875 17.5C0.921875 17.2497 1.00873 17.0083 1.16602 16.8164L1.2373 16.7373C1.43949 16.5351 1.71406 16.4219 2 16.4219H2.42188V10.75C2.42188 10.4997 2.50873 10.2583 2.66602 10.0664L2.7373 9.9873C2.93949 9.78512 3.21406 9.67188 3.5 9.67188H6.92188V6.25C6.92188 5.99972 7.00873 5.75828 7.16602 5.56641L7.2373 5.4873C7.43949 5.28512 7.71406 5.17188 8 5.17188H12.1719V1.75C12.1719 1.49973 12.2587 1.25828 12.416 1.06641L12.4873 0.987305C12.6895 0.785117 12.9641 0.671875 13.25 0.671875ZM4.57812 16.4219H6.92188V11.8281H4.57812V16.4219ZM9.07812 16.4219H12.1719V7.32812H9.07812V16.4219ZM14.3281 16.4219H17.4219V2.82812H14.3281V16.4219Z" fill="#475569" stroke="#475569" stroke-width="0.09375"/>
</svg>
