<svg width="18" height="24" viewBox="0 0 18 24" fill="none" xmlns="http://www.w3.org/2000/svg">
<path d="M11.8027 0.436829C11.9726 0.405091 12.1466 0.41497 12.3105 0.464172L12.4707 0.525696C12.6263 0.601065 12.7606 0.712912 12.8633 0.849915L12.9551 0.995422C13.0354 1.14838 13.0779 1.31748 13.0791 1.48859L13.0664 1.65948L12.0732 8.2796L12.0684 8.31671L12.1025 8.33038L16.9004 10.2493C17.0224 10.2982 17.1343 10.3687 17.2305 10.4573L17.3213 10.5511C17.4064 10.6511 17.4719 10.7659 17.5156 10.889L17.5518 11.015C17.5808 11.1435 17.586 11.2758 17.5674 11.4056L17.541 11.5345C17.5065 11.6616 17.4492 11.7811 17.3721 11.887L17.2881 11.9886L6.78809 23.2386C6.63097 23.4072 6.42379 23.5214 6.19727 23.5638C6.0275 23.5955 5.8533 23.5856 5.68945 23.5364L5.5293 23.4739C5.32196 23.3735 5.15212 23.2091 5.04492 23.0052C4.96445 22.852 4.92208 22.6824 4.9209 22.511L4.93359 22.3401L5.92676 15.7171L5.93164 15.681L5.89746 15.6673L1.09961 13.7484C0.977695 13.6995 0.865596 13.6288 0.769531 13.5403L0.678711 13.4456C0.593611 13.3455 0.528081 13.2308 0.484375 13.1077L0.447266 12.9818C0.418697 12.8535 0.413833 12.7214 0.432617 12.5921L0.459961 12.4642C0.494497 12.3374 0.551947 12.2183 0.628906 12.1126L0.711914 12.011L11.2119 0.761047C11.3297 0.634725 11.4757 0.539515 11.6367 0.48175L11.8027 0.436829ZM10.3154 4.88507L3.41016 12.2835L3.36328 12.3343L3.42676 12.3597L7.52539 13.9993C7.75088 14.0895 7.93972 14.2535 8.06055 14.4642C8.16611 14.6484 8.21478 14.8591 8.20117 15.0696L8.19141 15.1595L7.60352 19.0755L7.58105 19.2249L7.68457 19.1146L14.5898 11.7161L14.6367 11.6663L14.5732 11.6409L10.4746 10.0013C10.2773 9.92233 10.1084 9.78636 9.98828 9.61261L9.93945 9.53644C9.83367 9.352 9.78513 9.14084 9.79883 8.92999L9.80859 8.84015L10.3965 4.92413L10.4189 4.77472L10.3154 4.88507Z" fill="#475569" stroke="#475569" stroke-width="0.09375"/>
</svg>
