<svg width="22" height="21" viewBox="0 0 22 21" fill="none" xmlns="http://www.w3.org/2000/svg">
<path d="M10.9998 0.919067C12.3925 0.919067 13.7524 1.32974 14.9099 2.0968L15.1384 2.255C16.3436 3.12362 17.2448 4.3496 17.7146 5.75891C18.1551 7.08027 18.1955 8.50014 17.8337 9.84094L17.7566 10.1075C17.3137 11.5255 16.4352 12.768 15.2468 13.6593L15.1804 13.7091L15.2576 13.7404C17.6529 14.7128 19.6512 16.4632 20.9314 18.7091V18.7101C21.0469 18.9259 21.0854 19.1734 21.0417 19.4122L21.0183 19.5138C20.9512 19.7493 20.8057 19.9536 20.6082 20.0948L20.5203 20.1515C20.3083 20.274 20.0622 20.3202 19.822 20.2843L19.7195 20.2638C19.4482 20.1959 19.214 20.0256 19.0662 19.7882H19.0652C17.3581 16.8395 14.3436 15.0782 10.9998 15.0782C7.76012 15.0783 4.82927 16.7303 3.09741 19.5157L2.93335 19.7892L2.93237 19.7902C2.88127 19.8856 2.81675 19.9731 2.73999 20.049L2.65894 20.1212C2.57472 20.1891 2.48074 20.2435 2.38062 20.2833L2.27808 20.3185C2.17387 20.3482 2.06568 20.3619 1.95776 20.3595L1.84937 20.3517C1.74191 20.3383 1.63715 20.3091 1.53882 20.2648L1.44312 20.215C1.34938 20.1608 1.26442 20.0929 1.19116 20.0138L1.12183 19.9308C1.0565 19.8442 1.00412 19.7483 0.967529 19.6466L0.936279 19.5431C0.90999 19.4379 0.900011 19.3296 0.906006 19.2218L0.916748 19.1144C0.933556 19.0073 0.96684 18.9037 1.0144 18.8068L1.06714 18.712V18.7111C2.34728 16.4643 4.34697 14.713 6.74292 13.7404L6.81909 13.7091L6.75269 13.6593C5.63866 12.8236 4.79748 11.6793 4.33179 10.3712L4.2439 10.1075C3.80098 8.68959 3.81516 7.1682 4.28491 5.75891C4.72538 4.43752 5.54547 3.27758 6.6394 2.422L6.86108 2.255C8.06618 1.38642 9.51426 0.919115 10.9998 0.919067ZM11.9597 3.17297C11.1244 3.0069 10.2626 3.0607 9.45776 3.32629L9.11694 3.45325C8.2176 3.82577 7.44878 4.45637 6.90796 5.26575C6.36714 6.07515 6.07788 7.02667 6.07788 8.00012L6.08472 8.24426C6.14641 9.46016 6.65631 10.6137 7.52124 11.4786C8.38618 12.3436 9.53974 12.8534 10.7556 12.9152L10.9998 12.922C11.8516 12.922 12.6869 12.7009 13.4246 12.2833L13.7341 12.0919C14.4424 11.6186 15.0139 10.9711 15.3953 10.214L15.5476 9.88391C15.8735 9.09709 15.9889 8.24074 15.8855 7.39954L15.8269 7.04016C15.637 6.08541 15.1686 5.20799 14.4802 4.51965C13.7919 3.83135 12.9144 3.36288 11.9597 3.17297Z" fill="#475569" stroke="#475569" stroke-width="0.09375"/>
</svg>
