<svg width="20" height="21" viewBox="0 0 20 21" fill="none" xmlns="http://www.w3.org/2000/svg">
<path d="M10 0.921356C10.4241 0.921356 10.8329 1.06898 11.1582 1.33542L11.293 1.45651L18.793 8.95651C18.9208 9.08355 19.0285 9.2289 19.1133 9.38718L19.1904 9.54929C19.2594 9.71591 19.3022 9.89191 19.3193 10.0708L19.3281 10.2495V19.2505C19.328 19.5004 19.241 19.7414 19.084 19.9331L19.0127 20.0122C18.8105 20.2144 18.5359 20.3286 18.25 20.3286H1.75C1.49982 20.3286 1.25825 20.2416 1.06641 20.0844L0.987305 20.0122C0.785391 19.8101 0.671991 19.5361 0.671875 19.2505V10.2495C0.671336 10.0695 0.698123 9.89089 0.75 9.71921L0.80957 9.54929C0.878505 9.38286 0.971785 9.22782 1.08594 9.08932L1.20703 8.95651H1.20801L8.70801 1.45651C9.0508 1.11397 9.51539 0.921359 10 0.921356ZM17.1719 10.3852L10 3.21335L2.82812 10.3852V18.1723H17.1719V10.3852Z" fill="#475569" stroke="#475569" stroke-width="0.09375"/>
</svg>
